<mxfile host="app.diagrams.net" modified="2024-04-18T10:25:10.222Z" agent="Mozilla/5.0 (Windows NT 10.0; Win64; x64) AppleWebKit/537.36 (KHTML, like Gecko) Chrome/123.0.0.0 Safari/537.36 Edg/123.0.0.0" etag="S-m_aStlWvdRb9pEUqDR" version="24.2.5" type="device">
  <diagram id="R2lEEEUBdFMjLlhIrx00" name="Page-1">
    <mxGraphModel dx="1365" dy="744" grid="1" gridSize="10" guides="1" tooltips="1" connect="1" arrows="1" fold="1" page="1" pageScale="1" pageWidth="827" pageHeight="1169" math="0" shadow="0" extFonts="Permanent Marker^https://fonts.googleapis.com/css?family=Permanent+Marker">
      <root>
        <mxCell id="0" />
        <mxCell id="1" parent="0" />
        <mxCell id="NciHuFnZLNgPnIfeDTYm-17" value="Alumno" style="shape=table;startSize=30;container=1;collapsible=0;childLayout=tableLayout;fixedRows=1;rowLines=0;fontStyle=0;strokeColor=default;fontSize=16;" vertex="1" parent="1">
          <mxGeometry x="30" y="10" width="320" height="270" as="geometry" />
        </mxCell>
        <mxCell id="NciHuFnZLNgPnIfeDTYm-18" value="" style="shape=tableRow;horizontal=0;startSize=0;swimlaneHead=0;swimlaneBody=0;top=0;left=0;bottom=0;right=0;collapsible=0;dropTarget=0;fillColor=none;points=[[0,0.5],[1,0.5]];portConstraint=eastwest;strokeColor=inherit;fontSize=16;" vertex="1" parent="NciHuFnZLNgPnIfeDTYm-17">
          <mxGeometry y="30" width="320" height="30" as="geometry" />
        </mxCell>
        <mxCell id="NciHuFnZLNgPnIfeDTYm-19" value="PK" style="shape=partialRectangle;html=1;whiteSpace=wrap;connectable=0;fillColor=none;top=0;left=0;bottom=0;right=0;overflow=hidden;pointerEvents=1;strokeColor=inherit;fontSize=16;" vertex="1" parent="NciHuFnZLNgPnIfeDTYm-18">
          <mxGeometry width="71" height="30" as="geometry">
            <mxRectangle width="71" height="30" as="alternateBounds" />
          </mxGeometry>
        </mxCell>
        <mxCell id="NciHuFnZLNgPnIfeDTYm-20" value="id_alumno INT NOT NULL" style="shape=partialRectangle;html=1;whiteSpace=wrap;connectable=0;fillColor=none;top=0;left=0;bottom=0;right=0;align=left;spacingLeft=6;overflow=hidden;strokeColor=inherit;fontSize=16;" vertex="1" parent="NciHuFnZLNgPnIfeDTYm-18">
          <mxGeometry x="71" width="249" height="30" as="geometry">
            <mxRectangle width="249" height="30" as="alternateBounds" />
          </mxGeometry>
        </mxCell>
        <mxCell id="NciHuFnZLNgPnIfeDTYm-21" value="" style="shape=tableRow;horizontal=0;startSize=0;swimlaneHead=0;swimlaneBody=0;top=0;left=0;bottom=0;right=0;collapsible=0;dropTarget=0;fillColor=none;points=[[0,0.5],[1,0.5]];portConstraint=eastwest;strokeColor=inherit;fontSize=16;" vertex="1" parent="NciHuFnZLNgPnIfeDTYm-17">
          <mxGeometry y="60" width="320" height="60" as="geometry" />
        </mxCell>
        <mxCell id="NciHuFnZLNgPnIfeDTYm-22" value="" style="shape=partialRectangle;html=1;whiteSpace=wrap;connectable=0;fillColor=none;top=0;left=0;bottom=0;right=0;overflow=hidden;strokeColor=inherit;fontSize=16;" vertex="1" parent="NciHuFnZLNgPnIfeDTYm-21">
          <mxGeometry width="71" height="60" as="geometry">
            <mxRectangle width="71" height="60" as="alternateBounds" />
          </mxGeometry>
        </mxCell>
        <mxCell id="NciHuFnZLNgPnIfeDTYm-23" value="nombre VARCHAR (20) NOT NULL" style="shape=partialRectangle;html=1;whiteSpace=wrap;connectable=0;fillColor=none;top=0;left=0;bottom=0;right=0;align=left;spacingLeft=6;overflow=hidden;strokeColor=inherit;fontSize=16;" vertex="1" parent="NciHuFnZLNgPnIfeDTYm-21">
          <mxGeometry x="71" width="249" height="60" as="geometry">
            <mxRectangle width="249" height="60" as="alternateBounds" />
          </mxGeometry>
        </mxCell>
        <mxCell id="NciHuFnZLNgPnIfeDTYm-141" value="" style="shape=tableRow;horizontal=0;startSize=0;swimlaneHead=0;swimlaneBody=0;top=0;left=0;bottom=0;right=0;collapsible=0;dropTarget=0;fillColor=none;points=[[0,0.5],[1,0.5]];portConstraint=eastwest;strokeColor=inherit;fontSize=16;" vertex="1" parent="NciHuFnZLNgPnIfeDTYm-17">
          <mxGeometry y="120" width="320" height="60" as="geometry" />
        </mxCell>
        <mxCell id="NciHuFnZLNgPnIfeDTYm-142" value="" style="shape=partialRectangle;html=1;whiteSpace=wrap;connectable=0;fillColor=none;top=0;left=0;bottom=0;right=0;overflow=hidden;strokeColor=inherit;fontSize=16;" vertex="1" parent="NciHuFnZLNgPnIfeDTYm-141">
          <mxGeometry width="71" height="60" as="geometry">
            <mxRectangle width="71" height="60" as="alternateBounds" />
          </mxGeometry>
        </mxCell>
        <mxCell id="NciHuFnZLNgPnIfeDTYm-143" value="nombre VARCHAR (20) NOT NULL" style="shape=partialRectangle;html=1;whiteSpace=wrap;connectable=0;fillColor=none;top=0;left=0;bottom=0;right=0;align=left;spacingLeft=6;overflow=hidden;strokeColor=inherit;fontSize=16;" vertex="1" parent="NciHuFnZLNgPnIfeDTYm-141">
          <mxGeometry x="71" width="249" height="60" as="geometry">
            <mxRectangle width="249" height="60" as="alternateBounds" />
          </mxGeometry>
        </mxCell>
        <mxCell id="NciHuFnZLNgPnIfeDTYm-24" value="" style="shape=tableRow;horizontal=0;startSize=0;swimlaneHead=0;swimlaneBody=0;top=0;left=0;bottom=0;right=0;collapsible=0;dropTarget=0;fillColor=none;points=[[0,0.5],[1,0.5]];portConstraint=eastwest;strokeColor=inherit;fontSize=16;" vertex="1" parent="NciHuFnZLNgPnIfeDTYm-17">
          <mxGeometry y="180" width="320" height="30" as="geometry" />
        </mxCell>
        <mxCell id="NciHuFnZLNgPnIfeDTYm-25" value="FK" style="shape=partialRectangle;html=1;whiteSpace=wrap;connectable=0;fillColor=none;top=0;left=0;bottom=0;right=0;overflow=hidden;strokeColor=inherit;fontSize=16;" vertex="1" parent="NciHuFnZLNgPnIfeDTYm-24">
          <mxGeometry width="71" height="30" as="geometry">
            <mxRectangle width="71" height="30" as="alternateBounds" />
          </mxGeometry>
        </mxCell>
        <mxCell id="NciHuFnZLNgPnIfeDTYm-26" value="id_curso_alum INT NOT NULL" style="shape=partialRectangle;html=1;whiteSpace=wrap;connectable=0;fillColor=none;top=0;left=0;bottom=0;right=0;align=left;spacingLeft=6;overflow=hidden;strokeColor=inherit;fontSize=16;" vertex="1" parent="NciHuFnZLNgPnIfeDTYm-24">
          <mxGeometry x="71" width="249" height="30" as="geometry">
            <mxRectangle width="249" height="30" as="alternateBounds" />
          </mxGeometry>
        </mxCell>
        <mxCell id="NciHuFnZLNgPnIfeDTYm-75" value="" style="shape=tableRow;horizontal=0;startSize=0;swimlaneHead=0;swimlaneBody=0;top=0;left=0;bottom=0;right=0;collapsible=0;dropTarget=0;fillColor=none;points=[[0,0.5],[1,0.5]];portConstraint=eastwest;strokeColor=inherit;fontSize=16;" vertex="1" parent="NciHuFnZLNgPnIfeDTYm-17">
          <mxGeometry y="210" width="320" height="30" as="geometry" />
        </mxCell>
        <mxCell id="NciHuFnZLNgPnIfeDTYm-76" value="" style="shape=partialRectangle;html=1;whiteSpace=wrap;connectable=0;fillColor=none;top=0;left=0;bottom=0;right=0;overflow=hidden;strokeColor=inherit;fontSize=16;" vertex="1" parent="NciHuFnZLNgPnIfeDTYm-75">
          <mxGeometry width="71" height="30" as="geometry">
            <mxRectangle width="71" height="30" as="alternateBounds" />
          </mxGeometry>
        </mxCell>
        <mxCell id="NciHuFnZLNgPnIfeDTYm-77" value="" style="shape=partialRectangle;html=1;whiteSpace=wrap;connectable=0;fillColor=none;top=0;left=0;bottom=0;right=0;align=left;spacingLeft=6;overflow=hidden;strokeColor=inherit;fontSize=16;" vertex="1" parent="NciHuFnZLNgPnIfeDTYm-75">
          <mxGeometry x="71" width="249" height="30" as="geometry">
            <mxRectangle width="249" height="30" as="alternateBounds" />
          </mxGeometry>
        </mxCell>
        <mxCell id="NciHuFnZLNgPnIfeDTYm-78" value="" style="shape=tableRow;horizontal=0;startSize=0;swimlaneHead=0;swimlaneBody=0;top=0;left=0;bottom=0;right=0;collapsible=0;dropTarget=0;fillColor=none;points=[[0,0.5],[1,0.5]];portConstraint=eastwest;strokeColor=inherit;fontSize=16;" vertex="1" parent="NciHuFnZLNgPnIfeDTYm-17">
          <mxGeometry y="240" width="320" height="30" as="geometry" />
        </mxCell>
        <mxCell id="NciHuFnZLNgPnIfeDTYm-79" value="" style="shape=partialRectangle;html=1;whiteSpace=wrap;connectable=0;fillColor=none;top=0;left=0;bottom=0;right=0;overflow=hidden;strokeColor=inherit;fontSize=16;" vertex="1" parent="NciHuFnZLNgPnIfeDTYm-78">
          <mxGeometry width="71" height="30" as="geometry">
            <mxRectangle width="71" height="30" as="alternateBounds" />
          </mxGeometry>
        </mxCell>
        <mxCell id="NciHuFnZLNgPnIfeDTYm-80" value="" style="shape=partialRectangle;html=1;whiteSpace=wrap;connectable=0;fillColor=none;top=0;left=0;bottom=0;right=0;align=left;spacingLeft=6;overflow=hidden;strokeColor=inherit;fontSize=16;" vertex="1" parent="NciHuFnZLNgPnIfeDTYm-78">
          <mxGeometry x="71" width="249" height="30" as="geometry">
            <mxRectangle width="249" height="30" as="alternateBounds" />
          </mxGeometry>
        </mxCell>
        <mxCell id="NciHuFnZLNgPnIfeDTYm-122" value="" style="edgeStyle=orthogonalEdgeStyle;rounded=0;orthogonalLoop=1;jettySize=auto;html=1;startArrow=open;startFill=0;endArrow=ERoneToMany;endFill=0;" edge="1" parent="1" source="NciHuFnZLNgPnIfeDTYm-27" target="NciHuFnZLNgPnIfeDTYm-24">
          <mxGeometry relative="1" as="geometry">
            <mxPoint x="-70" y="565" as="targetPoint" />
          </mxGeometry>
        </mxCell>
        <mxCell id="NciHuFnZLNgPnIfeDTYm-27" value="Curso" style="shape=table;startSize=30;container=1;collapsible=0;childLayout=tableLayout;fixedRows=1;rowLines=0;fontStyle=0;strokeColor=default;fontSize=16;" vertex="1" parent="1">
          <mxGeometry x="180" y="620" width="280" height="160" as="geometry" />
        </mxCell>
        <mxCell id="NciHuFnZLNgPnIfeDTYm-28" value="" style="shape=tableRow;horizontal=0;startSize=0;swimlaneHead=0;swimlaneBody=0;top=0;left=0;bottom=0;right=0;collapsible=0;dropTarget=0;fillColor=none;points=[[0,0.5],[1,0.5]];portConstraint=eastwest;strokeColor=inherit;fontSize=16;" vertex="1" parent="NciHuFnZLNgPnIfeDTYm-27">
          <mxGeometry y="30" width="280" height="30" as="geometry" />
        </mxCell>
        <mxCell id="NciHuFnZLNgPnIfeDTYm-29" value="PK" style="shape=partialRectangle;html=1;whiteSpace=wrap;connectable=0;fillColor=none;top=0;left=0;bottom=0;right=0;overflow=hidden;pointerEvents=1;strokeColor=inherit;fontSize=16;" vertex="1" parent="NciHuFnZLNgPnIfeDTYm-28">
          <mxGeometry width="62" height="30" as="geometry">
            <mxRectangle width="62" height="30" as="alternateBounds" />
          </mxGeometry>
        </mxCell>
        <mxCell id="NciHuFnZLNgPnIfeDTYm-30" value="id_curso INT NOT NULL" style="shape=partialRectangle;html=1;whiteSpace=wrap;connectable=0;fillColor=none;top=0;left=0;bottom=0;right=0;align=left;spacingLeft=6;overflow=hidden;strokeColor=inherit;fontSize=16;" vertex="1" parent="NciHuFnZLNgPnIfeDTYm-28">
          <mxGeometry x="62" width="218" height="30" as="geometry">
            <mxRectangle width="218" height="30" as="alternateBounds" />
          </mxGeometry>
        </mxCell>
        <mxCell id="NciHuFnZLNgPnIfeDTYm-31" value="" style="shape=tableRow;horizontal=0;startSize=0;swimlaneHead=0;swimlaneBody=0;top=0;left=0;bottom=0;right=0;collapsible=0;dropTarget=0;fillColor=none;points=[[0,0.5],[1,0.5]];portConstraint=eastwest;strokeColor=inherit;fontSize=16;" vertex="1" parent="NciHuFnZLNgPnIfeDTYm-27">
          <mxGeometry y="60" width="280" height="70" as="geometry" />
        </mxCell>
        <mxCell id="NciHuFnZLNgPnIfeDTYm-32" value="" style="shape=partialRectangle;html=1;whiteSpace=wrap;connectable=0;fillColor=none;top=0;left=0;bottom=0;right=0;overflow=hidden;strokeColor=inherit;fontSize=16;" vertex="1" parent="NciHuFnZLNgPnIfeDTYm-31">
          <mxGeometry width="62" height="70" as="geometry">
            <mxRectangle width="62" height="70" as="alternateBounds" />
          </mxGeometry>
        </mxCell>
        <mxCell id="NciHuFnZLNgPnIfeDTYm-33" value="nom_curso VARCHAR (10) NOT NULL" style="shape=partialRectangle;html=1;whiteSpace=wrap;connectable=0;fillColor=none;top=0;left=0;bottom=0;right=0;align=left;spacingLeft=6;overflow=hidden;strokeColor=inherit;fontSize=16;" vertex="1" parent="NciHuFnZLNgPnIfeDTYm-31">
          <mxGeometry x="62" width="218" height="70" as="geometry">
            <mxRectangle width="218" height="70" as="alternateBounds" />
          </mxGeometry>
        </mxCell>
        <mxCell id="NciHuFnZLNgPnIfeDTYm-34" value="" style="shape=tableRow;horizontal=0;startSize=0;swimlaneHead=0;swimlaneBody=0;top=0;left=0;bottom=0;right=0;collapsible=0;dropTarget=0;fillColor=none;points=[[0,0.5],[1,0.5]];portConstraint=eastwest;strokeColor=inherit;fontSize=16;" vertex="1" parent="NciHuFnZLNgPnIfeDTYm-27">
          <mxGeometry y="130" width="280" height="30" as="geometry" />
        </mxCell>
        <mxCell id="NciHuFnZLNgPnIfeDTYm-35" value="" style="shape=partialRectangle;html=1;whiteSpace=wrap;connectable=0;fillColor=none;top=0;left=0;bottom=0;right=0;overflow=hidden;strokeColor=inherit;fontSize=16;" vertex="1" parent="NciHuFnZLNgPnIfeDTYm-34">
          <mxGeometry width="62" height="30" as="geometry">
            <mxRectangle width="62" height="30" as="alternateBounds" />
          </mxGeometry>
        </mxCell>
        <mxCell id="NciHuFnZLNgPnIfeDTYm-36" value="" style="shape=partialRectangle;html=1;whiteSpace=wrap;connectable=0;fillColor=none;top=0;left=0;bottom=0;right=0;align=left;spacingLeft=6;overflow=hidden;strokeColor=inherit;fontSize=16;" vertex="1" parent="NciHuFnZLNgPnIfeDTYm-34">
          <mxGeometry x="62" width="218" height="30" as="geometry">
            <mxRectangle width="218" height="30" as="alternateBounds" />
          </mxGeometry>
        </mxCell>
        <mxCell id="NciHuFnZLNgPnIfeDTYm-111" value="" style="edgeStyle=orthogonalEdgeStyle;rounded=0;orthogonalLoop=1;jettySize=auto;html=1;entryX=0;entryY=0.5;entryDx=0;entryDy=0;exitX=0;exitY=0.5;exitDx=0;exitDy=0;startArrow=ERoneToMany;startFill=0;dashed=1;" edge="1" parent="1" source="NciHuFnZLNgPnIfeDTYm-38" target="NciHuFnZLNgPnIfeDTYm-65">
          <mxGeometry relative="1" as="geometry">
            <mxPoint x="460.090909090909" y="329.909090909091" as="targetPoint" />
            <Array as="points">
              <mxPoint x="790" y="655" />
              <mxPoint x="790" y="560" />
              <mxPoint x="530" y="560" />
              <mxPoint x="530" y="145" />
              <mxPoint x="590" y="145" />
              <mxPoint x="590" y="125" />
            </Array>
          </mxGeometry>
        </mxCell>
        <mxCell id="NciHuFnZLNgPnIfeDTYm-37" value="Asignatura" style="shape=table;startSize=30;container=1;collapsible=0;childLayout=tableLayout;fixedRows=1;rowLines=0;fontStyle=0;strokeColor=default;fontSize=16;" vertex="1" parent="1">
          <mxGeometry x="910" y="610" width="300" height="120" as="geometry" />
        </mxCell>
        <mxCell id="NciHuFnZLNgPnIfeDTYm-38" value="" style="shape=tableRow;horizontal=0;startSize=0;swimlaneHead=0;swimlaneBody=0;top=0;left=0;bottom=0;right=0;collapsible=0;dropTarget=0;fillColor=none;points=[[0,0.5],[1,0.5]];portConstraint=eastwest;strokeColor=inherit;fontSize=16;" vertex="1" parent="NciHuFnZLNgPnIfeDTYm-37">
          <mxGeometry y="30" width="300" height="30" as="geometry" />
        </mxCell>
        <mxCell id="NciHuFnZLNgPnIfeDTYm-39" value="PK" style="shape=partialRectangle;html=1;whiteSpace=wrap;connectable=0;fillColor=none;top=0;left=0;bottom=0;right=0;overflow=hidden;pointerEvents=1;strokeColor=inherit;fontSize=16;" vertex="1" parent="NciHuFnZLNgPnIfeDTYm-38">
          <mxGeometry width="67" height="30" as="geometry">
            <mxRectangle width="67" height="30" as="alternateBounds" />
          </mxGeometry>
        </mxCell>
        <mxCell id="NciHuFnZLNgPnIfeDTYm-40" value="id_asig INT NOT NULL" style="shape=partialRectangle;html=1;whiteSpace=wrap;connectable=0;fillColor=none;top=0;left=0;bottom=0;right=0;align=left;spacingLeft=6;overflow=hidden;strokeColor=inherit;fontSize=16;" vertex="1" parent="NciHuFnZLNgPnIfeDTYm-38">
          <mxGeometry x="67" width="233" height="30" as="geometry">
            <mxRectangle width="233" height="30" as="alternateBounds" />
          </mxGeometry>
        </mxCell>
        <mxCell id="NciHuFnZLNgPnIfeDTYm-41" value="" style="shape=tableRow;horizontal=0;startSize=0;swimlaneHead=0;swimlaneBody=0;top=0;left=0;bottom=0;right=0;collapsible=0;dropTarget=0;fillColor=none;points=[[0,0.5],[1,0.5]];portConstraint=eastwest;strokeColor=inherit;fontSize=16;" vertex="1" parent="NciHuFnZLNgPnIfeDTYm-37">
          <mxGeometry y="60" width="300" height="30" as="geometry" />
        </mxCell>
        <mxCell id="NciHuFnZLNgPnIfeDTYm-42" value="" style="shape=partialRectangle;html=1;whiteSpace=wrap;connectable=0;fillColor=none;top=0;left=0;bottom=0;right=0;overflow=hidden;strokeColor=inherit;fontSize=16;" vertex="1" parent="NciHuFnZLNgPnIfeDTYm-41">
          <mxGeometry width="67" height="30" as="geometry">
            <mxRectangle width="67" height="30" as="alternateBounds" />
          </mxGeometry>
        </mxCell>
        <mxCell id="NciHuFnZLNgPnIfeDTYm-43" value="nom_asig VARCHAR(30)" style="shape=partialRectangle;html=1;whiteSpace=wrap;connectable=0;fillColor=none;top=0;left=0;bottom=0;right=0;align=left;spacingLeft=6;overflow=hidden;strokeColor=inherit;fontSize=16;" vertex="1" parent="NciHuFnZLNgPnIfeDTYm-41">
          <mxGeometry x="67" width="233" height="30" as="geometry">
            <mxRectangle width="233" height="30" as="alternateBounds" />
          </mxGeometry>
        </mxCell>
        <mxCell id="NciHuFnZLNgPnIfeDTYm-44" value="" style="shape=tableRow;horizontal=0;startSize=0;swimlaneHead=0;swimlaneBody=0;top=0;left=0;bottom=0;right=0;collapsible=0;dropTarget=0;fillColor=none;points=[[0,0.5],[1,0.5]];portConstraint=eastwest;strokeColor=inherit;fontSize=16;" vertex="1" parent="NciHuFnZLNgPnIfeDTYm-37">
          <mxGeometry y="90" width="300" height="30" as="geometry" />
        </mxCell>
        <mxCell id="NciHuFnZLNgPnIfeDTYm-45" value="FK" style="shape=partialRectangle;html=1;whiteSpace=wrap;connectable=0;fillColor=none;top=0;left=0;bottom=0;right=0;overflow=hidden;strokeColor=inherit;fontSize=16;" vertex="1" parent="NciHuFnZLNgPnIfeDTYm-44">
          <mxGeometry width="67" height="30" as="geometry">
            <mxRectangle width="67" height="30" as="alternateBounds" />
          </mxGeometry>
        </mxCell>
        <mxCell id="NciHuFnZLNgPnIfeDTYm-46" value="id_curso_asig INT NOT NULL" style="shape=partialRectangle;html=1;whiteSpace=wrap;connectable=0;fillColor=none;top=0;left=0;bottom=0;right=0;align=left;spacingLeft=6;overflow=hidden;strokeColor=inherit;fontSize=16;" vertex="1" parent="NciHuFnZLNgPnIfeDTYm-44">
          <mxGeometry x="67" width="233" height="30" as="geometry">
            <mxRectangle width="233" height="30" as="alternateBounds" />
          </mxGeometry>
        </mxCell>
        <mxCell id="NciHuFnZLNgPnIfeDTYm-47" value="Profesor" style="shape=table;startSize=30;container=1;collapsible=0;childLayout=tableLayout;fixedRows=1;rowLines=0;fontStyle=0;strokeColor=default;fontSize=16;" vertex="1" parent="1">
          <mxGeometry x="920" y="20" width="250" height="210" as="geometry" />
        </mxCell>
        <mxCell id="NciHuFnZLNgPnIfeDTYm-48" value="" style="shape=tableRow;horizontal=0;startSize=0;swimlaneHead=0;swimlaneBody=0;top=0;left=0;bottom=0;right=0;collapsible=0;dropTarget=0;fillColor=none;points=[[0,0.5],[1,0.5]];portConstraint=eastwest;strokeColor=inherit;fontSize=16;" vertex="1" parent="NciHuFnZLNgPnIfeDTYm-47">
          <mxGeometry y="30" width="250" height="50" as="geometry" />
        </mxCell>
        <mxCell id="NciHuFnZLNgPnIfeDTYm-49" value="PK" style="shape=partialRectangle;html=1;whiteSpace=wrap;connectable=0;fillColor=none;top=0;left=0;bottom=0;right=0;overflow=hidden;pointerEvents=1;strokeColor=inherit;fontSize=16;" vertex="1" parent="NciHuFnZLNgPnIfeDTYm-48">
          <mxGeometry width="56" height="50" as="geometry">
            <mxRectangle width="56" height="50" as="alternateBounds" />
          </mxGeometry>
        </mxCell>
        <mxCell id="NciHuFnZLNgPnIfeDTYm-50" value="id_profesor INT NOT NULL" style="shape=partialRectangle;html=1;whiteSpace=wrap;connectable=0;fillColor=none;top=0;left=0;bottom=0;right=0;align=left;spacingLeft=6;overflow=hidden;strokeColor=inherit;fontSize=16;" vertex="1" parent="NciHuFnZLNgPnIfeDTYm-48">
          <mxGeometry x="56" width="194" height="50" as="geometry">
            <mxRectangle width="194" height="50" as="alternateBounds" />
          </mxGeometry>
        </mxCell>
        <mxCell id="NciHuFnZLNgPnIfeDTYm-51" value="" style="shape=tableRow;horizontal=0;startSize=0;swimlaneHead=0;swimlaneBody=0;top=0;left=0;bottom=0;right=0;collapsible=0;dropTarget=0;fillColor=none;points=[[0,0.5],[1,0.5]];portConstraint=eastwest;strokeColor=inherit;fontSize=16;" vertex="1" parent="NciHuFnZLNgPnIfeDTYm-47">
          <mxGeometry y="80" width="250" height="70" as="geometry" />
        </mxCell>
        <mxCell id="NciHuFnZLNgPnIfeDTYm-52" value="" style="shape=partialRectangle;html=1;whiteSpace=wrap;connectable=0;fillColor=none;top=0;left=0;bottom=0;right=0;overflow=hidden;strokeColor=inherit;fontSize=16;" vertex="1" parent="NciHuFnZLNgPnIfeDTYm-51">
          <mxGeometry width="56" height="70" as="geometry">
            <mxRectangle width="56" height="70" as="alternateBounds" />
          </mxGeometry>
        </mxCell>
        <mxCell id="NciHuFnZLNgPnIfeDTYm-53" value="nombre_prof VARCHAR&amp;nbsp;(20) NOT NULL" style="shape=partialRectangle;html=1;whiteSpace=wrap;connectable=0;fillColor=none;top=0;left=0;bottom=0;right=0;align=left;spacingLeft=6;overflow=hidden;strokeColor=inherit;fontSize=16;" vertex="1" parent="NciHuFnZLNgPnIfeDTYm-51">
          <mxGeometry x="56" width="194" height="70" as="geometry">
            <mxRectangle width="194" height="70" as="alternateBounds" />
          </mxGeometry>
        </mxCell>
        <mxCell id="NciHuFnZLNgPnIfeDTYm-54" value="" style="shape=tableRow;horizontal=0;startSize=0;swimlaneHead=0;swimlaneBody=0;top=0;left=0;bottom=0;right=0;collapsible=0;dropTarget=0;fillColor=none;points=[[0,0.5],[1,0.5]];portConstraint=eastwest;strokeColor=inherit;fontSize=16;" vertex="1" parent="NciHuFnZLNgPnIfeDTYm-47">
          <mxGeometry y="150" width="250" height="60" as="geometry" />
        </mxCell>
        <mxCell id="NciHuFnZLNgPnIfeDTYm-55" value="FK" style="shape=partialRectangle;html=1;whiteSpace=wrap;connectable=0;fillColor=none;top=0;left=0;bottom=0;right=0;overflow=hidden;strokeColor=inherit;fontSize=16;" vertex="1" parent="NciHuFnZLNgPnIfeDTYm-54">
          <mxGeometry width="56" height="60" as="geometry">
            <mxRectangle width="56" height="60" as="alternateBounds" />
          </mxGeometry>
        </mxCell>
        <mxCell id="NciHuFnZLNgPnIfeDTYm-56" value="id_asig_prof NOT NULL" style="shape=partialRectangle;html=1;whiteSpace=wrap;connectable=0;fillColor=none;top=0;left=0;bottom=0;right=0;align=left;spacingLeft=6;overflow=hidden;strokeColor=inherit;fontSize=16;" vertex="1" parent="NciHuFnZLNgPnIfeDTYm-54">
          <mxGeometry x="56" width="194" height="60" as="geometry">
            <mxRectangle width="194" height="60" as="alternateBounds" />
          </mxGeometry>
        </mxCell>
        <mxCell id="NciHuFnZLNgPnIfeDTYm-60" style="edgeStyle=orthogonalEdgeStyle;rounded=0;orthogonalLoop=1;jettySize=auto;html=1;startArrow=open;startFill=0;endArrow=ERzeroToMany;endFill=0;" edge="1" parent="1" source="NciHuFnZLNgPnIfeDTYm-28" target="NciHuFnZLNgPnIfeDTYm-44">
          <mxGeometry relative="1" as="geometry" />
        </mxCell>
        <mxCell id="NciHuFnZLNgPnIfeDTYm-61" value="Aula" style="shape=table;startSize=40;container=1;collapsible=0;childLayout=tableLayout;fixedRows=1;rowLines=0;fontStyle=0;strokeColor=default;fontSize=16;" vertex="1" parent="1">
          <mxGeometry x="647" y="5" width="180" height="240" as="geometry" />
        </mxCell>
        <mxCell id="NciHuFnZLNgPnIfeDTYm-62" value="" style="shape=tableRow;horizontal=0;startSize=0;swimlaneHead=0;swimlaneBody=0;top=0;left=0;bottom=0;right=0;collapsible=0;dropTarget=0;fillColor=none;points=[[0,0.5],[1,0.5]];portConstraint=eastwest;strokeColor=inherit;fontSize=16;" vertex="1" parent="NciHuFnZLNgPnIfeDTYm-61">
          <mxGeometry y="40" width="180" height="50" as="geometry" />
        </mxCell>
        <mxCell id="NciHuFnZLNgPnIfeDTYm-63" value="PK" style="shape=partialRectangle;html=1;whiteSpace=wrap;connectable=0;fillColor=none;top=0;left=0;bottom=0;right=0;overflow=hidden;pointerEvents=1;strokeColor=inherit;fontSize=16;" vertex="1" parent="NciHuFnZLNgPnIfeDTYm-62">
          <mxGeometry width="40" height="50" as="geometry">
            <mxRectangle width="40" height="50" as="alternateBounds" />
          </mxGeometry>
        </mxCell>
        <mxCell id="NciHuFnZLNgPnIfeDTYm-64" value="id_aula INT NOT NULL" style="shape=partialRectangle;html=1;whiteSpace=wrap;connectable=0;fillColor=none;top=0;left=0;bottom=0;right=0;align=left;spacingLeft=6;overflow=hidden;strokeColor=inherit;fontSize=16;" vertex="1" parent="NciHuFnZLNgPnIfeDTYm-62">
          <mxGeometry x="40" width="140" height="50" as="geometry">
            <mxRectangle width="140" height="50" as="alternateBounds" />
          </mxGeometry>
        </mxCell>
        <mxCell id="NciHuFnZLNgPnIfeDTYm-65" value="" style="shape=tableRow;horizontal=0;startSize=0;swimlaneHead=0;swimlaneBody=0;top=0;left=0;bottom=0;right=0;collapsible=0;dropTarget=0;fillColor=none;points=[[0,0.5],[1,0.5]];portConstraint=eastwest;strokeColor=inherit;fontSize=16;" vertex="1" parent="NciHuFnZLNgPnIfeDTYm-61">
          <mxGeometry y="90" width="180" height="60" as="geometry" />
        </mxCell>
        <mxCell id="NciHuFnZLNgPnIfeDTYm-66" value="FK" style="shape=partialRectangle;html=1;whiteSpace=wrap;connectable=0;fillColor=none;top=0;left=0;bottom=0;right=0;overflow=hidden;strokeColor=inherit;fontSize=16;" vertex="1" parent="NciHuFnZLNgPnIfeDTYm-65">
          <mxGeometry width="40" height="60" as="geometry">
            <mxRectangle width="40" height="60" as="alternateBounds" />
          </mxGeometry>
        </mxCell>
        <mxCell id="NciHuFnZLNgPnIfeDTYm-67" value="id_asig_aula INT NOT NULL" style="shape=partialRectangle;html=1;whiteSpace=wrap;connectable=0;fillColor=none;top=0;left=0;bottom=0;right=0;align=left;spacingLeft=6;overflow=hidden;strokeColor=inherit;fontSize=16;" vertex="1" parent="NciHuFnZLNgPnIfeDTYm-65">
          <mxGeometry x="40" width="140" height="60" as="geometry">
            <mxRectangle width="140" height="60" as="alternateBounds" />
          </mxGeometry>
        </mxCell>
        <mxCell id="NciHuFnZLNgPnIfeDTYm-68" value="" style="shape=tableRow;horizontal=0;startSize=0;swimlaneHead=0;swimlaneBody=0;top=0;left=0;bottom=0;right=0;collapsible=0;dropTarget=0;fillColor=none;points=[[0,0.5],[1,0.5]];portConstraint=eastwest;strokeColor=inherit;fontSize=16;" vertex="1" parent="NciHuFnZLNgPnIfeDTYm-61">
          <mxGeometry y="150" width="180" height="70" as="geometry" />
        </mxCell>
        <mxCell id="NciHuFnZLNgPnIfeDTYm-69" value="" style="shape=partialRectangle;html=1;whiteSpace=wrap;connectable=0;fillColor=none;top=0;left=0;bottom=0;right=0;overflow=hidden;strokeColor=inherit;fontSize=16;" vertex="1" parent="NciHuFnZLNgPnIfeDTYm-68">
          <mxGeometry width="40" height="70" as="geometry">
            <mxRectangle width="40" height="70" as="alternateBounds" />
          </mxGeometry>
        </mxCell>
        <mxCell id="NciHuFnZLNgPnIfeDTYm-70" value="" style="shape=partialRectangle;html=1;whiteSpace=wrap;connectable=0;fillColor=none;top=0;left=0;bottom=0;right=0;align=left;spacingLeft=6;overflow=hidden;strokeColor=inherit;fontSize=16;" vertex="1" parent="NciHuFnZLNgPnIfeDTYm-68">
          <mxGeometry x="40" width="140" height="70" as="geometry">
            <mxRectangle width="140" height="70" as="alternateBounds" />
          </mxGeometry>
        </mxCell>
        <mxCell id="NciHuFnZLNgPnIfeDTYm-81" value="" style="shape=tableRow;horizontal=0;startSize=0;swimlaneHead=0;swimlaneBody=0;top=0;left=0;bottom=0;right=0;collapsible=0;dropTarget=0;fillColor=none;points=[[0,0.5],[1,0.5]];portConstraint=eastwest;strokeColor=inherit;fontSize=16;" vertex="1" parent="NciHuFnZLNgPnIfeDTYm-61">
          <mxGeometry y="220" width="180" height="20" as="geometry" />
        </mxCell>
        <mxCell id="NciHuFnZLNgPnIfeDTYm-82" value="" style="shape=partialRectangle;html=1;whiteSpace=wrap;connectable=0;fillColor=none;top=0;left=0;bottom=0;right=0;overflow=hidden;strokeColor=inherit;fontSize=16;" vertex="1" parent="NciHuFnZLNgPnIfeDTYm-81">
          <mxGeometry width="40" height="20" as="geometry">
            <mxRectangle width="40" height="20" as="alternateBounds" />
          </mxGeometry>
        </mxCell>
        <mxCell id="NciHuFnZLNgPnIfeDTYm-83" value="" style="shape=partialRectangle;html=1;whiteSpace=wrap;connectable=0;fillColor=none;top=0;left=0;bottom=0;right=0;align=left;spacingLeft=6;overflow=hidden;strokeColor=inherit;fontSize=16;" vertex="1" parent="NciHuFnZLNgPnIfeDTYm-81">
          <mxGeometry x="40" width="140" height="20" as="geometry">
            <mxRectangle width="140" height="20" as="alternateBounds" />
          </mxGeometry>
        </mxCell>
        <mxCell id="NciHuFnZLNgPnIfeDTYm-140" style="edgeStyle=orthogonalEdgeStyle;rounded=0;orthogonalLoop=1;jettySize=auto;html=1;startArrow=ERoneToMany;startFill=0;" edge="1" parent="1" target="NciHuFnZLNgPnIfeDTYm-54">
          <mxGeometry relative="1" as="geometry">
            <mxPoint x="910" y="655" as="sourcePoint" />
            <Array as="points">
              <mxPoint x="911" y="443" />
              <mxPoint x="900" y="443" />
              <mxPoint x="900" y="200" />
            </Array>
          </mxGeometry>
        </mxCell>
        <mxCell id="NciHuFnZLNgPnIfeDTYm-144" value="Matricula" style="shape=table;startSize=30;container=1;collapsible=0;childLayout=tableLayout;fixedRows=1;rowLines=0;fontStyle=0;strokeColor=default;fontSize=16;" vertex="1" parent="1">
          <mxGeometry x="580" y="300" width="180" height="200" as="geometry" />
        </mxCell>
        <mxCell id="NciHuFnZLNgPnIfeDTYm-145" value="" style="shape=tableRow;horizontal=0;startSize=0;swimlaneHead=0;swimlaneBody=0;top=0;left=0;bottom=0;right=0;collapsible=0;dropTarget=0;fillColor=none;points=[[0,0.5],[1,0.5]];portConstraint=eastwest;strokeColor=inherit;fontSize=16;" vertex="1" parent="NciHuFnZLNgPnIfeDTYm-144">
          <mxGeometry y="30" width="180" height="60" as="geometry" />
        </mxCell>
        <mxCell id="NciHuFnZLNgPnIfeDTYm-146" value="PK" style="shape=partialRectangle;html=1;whiteSpace=wrap;connectable=0;fillColor=none;top=0;left=0;bottom=0;right=0;overflow=hidden;pointerEvents=1;strokeColor=inherit;fontSize=16;" vertex="1" parent="NciHuFnZLNgPnIfeDTYm-145">
          <mxGeometry width="40" height="60" as="geometry">
            <mxRectangle width="40" height="60" as="alternateBounds" />
          </mxGeometry>
        </mxCell>
        <mxCell id="NciHuFnZLNgPnIfeDTYm-147" value="id_matricula INT NOT NULL" style="shape=partialRectangle;html=1;whiteSpace=wrap;connectable=0;fillColor=none;top=0;left=0;bottom=0;right=0;align=left;spacingLeft=6;overflow=hidden;strokeColor=inherit;fontSize=16;" vertex="1" parent="NciHuFnZLNgPnIfeDTYm-145">
          <mxGeometry x="40" width="140" height="60" as="geometry">
            <mxRectangle width="140" height="60" as="alternateBounds" />
          </mxGeometry>
        </mxCell>
        <mxCell id="NciHuFnZLNgPnIfeDTYm-148" value="" style="shape=tableRow;horizontal=0;startSize=0;swimlaneHead=0;swimlaneBody=0;top=0;left=0;bottom=0;right=0;collapsible=0;dropTarget=0;fillColor=none;points=[[0,0.5],[1,0.5]];portConstraint=eastwest;strokeColor=inherit;fontSize=16;" vertex="1" parent="NciHuFnZLNgPnIfeDTYm-144">
          <mxGeometry y="90" width="180" height="60" as="geometry" />
        </mxCell>
        <mxCell id="NciHuFnZLNgPnIfeDTYm-149" value="FK" style="shape=partialRectangle;html=1;whiteSpace=wrap;connectable=0;fillColor=none;top=0;left=0;bottom=0;right=0;overflow=hidden;strokeColor=inherit;fontSize=16;" vertex="1" parent="NciHuFnZLNgPnIfeDTYm-148">
          <mxGeometry width="40" height="60" as="geometry">
            <mxRectangle width="40" height="60" as="alternateBounds" />
          </mxGeometry>
        </mxCell>
        <mxCell id="NciHuFnZLNgPnIfeDTYm-150" value="id_alumno_mat INT NOT NULL" style="shape=partialRectangle;html=1;whiteSpace=wrap;connectable=0;fillColor=none;top=0;left=0;bottom=0;right=0;align=left;spacingLeft=6;overflow=hidden;strokeColor=inherit;fontSize=16;" vertex="1" parent="NciHuFnZLNgPnIfeDTYm-148">
          <mxGeometry x="40" width="140" height="60" as="geometry">
            <mxRectangle width="140" height="60" as="alternateBounds" />
          </mxGeometry>
        </mxCell>
        <mxCell id="NciHuFnZLNgPnIfeDTYm-151" value="" style="shape=tableRow;horizontal=0;startSize=0;swimlaneHead=0;swimlaneBody=0;top=0;left=0;bottom=0;right=0;collapsible=0;dropTarget=0;fillColor=none;points=[[0,0.5],[1,0.5]];portConstraint=eastwest;strokeColor=inherit;fontSize=16;" vertex="1" parent="NciHuFnZLNgPnIfeDTYm-144">
          <mxGeometry y="150" width="180" height="50" as="geometry" />
        </mxCell>
        <mxCell id="NciHuFnZLNgPnIfeDTYm-152" value="FK" style="shape=partialRectangle;html=1;whiteSpace=wrap;connectable=0;fillColor=none;top=0;left=0;bottom=0;right=0;overflow=hidden;strokeColor=inherit;fontSize=16;" vertex="1" parent="NciHuFnZLNgPnIfeDTYm-151">
          <mxGeometry width="40" height="50" as="geometry">
            <mxRectangle width="40" height="50" as="alternateBounds" />
          </mxGeometry>
        </mxCell>
        <mxCell id="NciHuFnZLNgPnIfeDTYm-153" value="id_asignatura_mat INT NOT NULL" style="shape=partialRectangle;html=1;whiteSpace=wrap;connectable=0;fillColor=none;top=0;left=0;bottom=0;right=0;align=left;spacingLeft=6;overflow=hidden;strokeColor=inherit;fontSize=16;" vertex="1" parent="NciHuFnZLNgPnIfeDTYm-151">
          <mxGeometry x="40" width="140" height="50" as="geometry">
            <mxRectangle width="140" height="50" as="alternateBounds" />
          </mxGeometry>
        </mxCell>
        <mxCell id="NciHuFnZLNgPnIfeDTYm-154" style="edgeStyle=orthogonalEdgeStyle;rounded=0;orthogonalLoop=1;jettySize=auto;html=1;startArrow=open;startFill=0;entryX=1;entryY=0.5;entryDx=0;entryDy=0;endArrow=open;endFill=0;dashed=1;dashPattern=12 12;" edge="1" parent="1" target="NciHuFnZLNgPnIfeDTYm-151">
          <mxGeometry relative="1" as="geometry">
            <mxPoint x="920" y="665" as="sourcePoint" />
            <mxPoint x="930" y="210" as="targetPoint" />
            <Array as="points">
              <mxPoint x="870" y="665" />
              <mxPoint x="870" y="530" />
              <mxPoint x="860" y="530" />
              <mxPoint x="860" y="475" />
            </Array>
          </mxGeometry>
        </mxCell>
        <mxCell id="NciHuFnZLNgPnIfeDTYm-177" value="" style="edgeStyle=orthogonalEdgeStyle;rounded=0;orthogonalLoop=1;jettySize=auto;html=1;startArrow=open;startFill=0;endArrow=ERoneToMany;endFill=0;dashed=1;dashPattern=1 2;" edge="1" parent="1" source="NciHuFnZLNgPnIfeDTYm-148" target="NciHuFnZLNgPnIfeDTYm-24">
          <mxGeometry relative="1" as="geometry">
            <mxPoint x="330" y="630" as="sourcePoint" />
            <mxPoint x="360" y="215" as="targetPoint" />
          </mxGeometry>
        </mxCell>
      </root>
    </mxGraphModel>
  </diagram>
</mxfile>
